<?xml version="1.0" encoding="utf-8"?>
<!-- Generator: Adobe Illustrator 23.0.1, SVG Export Plug-In . SVG Version: 6.00 Build 0)  -->
<svg version="1.1" id="Layer_1" xmlns="http://www.w3.org/2000/svg" xmlns:xlink="http://www.w3.org/1999/xlink" x="0px" y="0px"
	 viewBox="0 0 2947 405.2" style="enable-background:new 0 0 2947 405.2;" xml:space="preserve">
<style type="text/css">
	.st0{fill:#199CD8;}
	.st1{fill:#253A79;}
	.st2{fill:#24305E;}
	.st3{fill:#FFFFFF;}
	.st4{fill:#DADADA;}
	.st5{fill:#262D5A;}
	.st6{fill:#E41020;}
	.st7{fill:#F59E1E;}
	.st8{fill:#0E0F0E;}
	.st9{fill:#EB611D;}
	.st10{fill:#2098D5;}
	.st11{fill:#E4151D;}
	.st12{fill:#6D6CB0;}
	.st13{fill:#231E1F;}
	.st14{fill:#2B6DB5;}
	.st15{fill:#FEFEFF;}
</style>
<g>
	<path class="st0" d="M811.7,256.5c-3.8,2.4-7.4,5.3-11.4,7.2c-11.9,5.6-24.1,6-36.1,0.7c-10.5-4.6-16-13.4-18.3-24.3
		c-5.2-24.7,10-53.7,37.1-60.6c9.5-2.4,19-2.1,28.4,0.8c4.6,1.4,8.2,4.2,11.1,8.7c0.3-2,0.5-3.3,0.7-4.7c0.5-3.1,1.8-4.3,4.9-4.3
		c6.9,0,13.8,0,20.7,0c3.5,0,5,1.9,4.4,5.2c-3.9,24.8-7.8,49.6-11.7,74.4c-0.6,4-3,6.1-7.1,6.1c-6.2,0.1-12.4,0-18.5,0
		c-3.7,0-5.2-1.8-4.8-5.6C811.5,259,811.6,257.7,811.7,256.5c0.1,0,0.1,0,0.2-0.1c0,0,0-0.1,0-0.1
		C811.9,256.3,811.8,256.4,811.7,256.5z M793.8,244.1c11.7,0,21.2-7.1,24.2-18.2c3.3-12.3-2.3-24.3-18-24.3
		c-12.1,0.1-21.4,8.1-24.1,19.9C772.9,234.7,780.4,244.1,793.8,244.1z"/>
	<path class="st0" d="M870.1,265.8c-3,0-6,0-9,0c-3.2-0.1-4.9-2-4.5-5.1c2.7-17.5,5.5-34.9,8.2-52.4c2.7-16.8,5.3-33.6,8-50.5
		c0.9-5.6,1.7-11.1,2.7-16.7c0.5-2.9,1.9-4,4.8-4.1c6.4,0,12.9-0.1,19.3,0c3.8,0,5.4,1.6,4.8,5.5c-1,7.8-2.3,15.6-3.5,23.4
		c-3,19.2-6.1,38.5-9.1,57.7c-1.9,11.9-3.7,23.8-5.6,35.7c-0.7,4.2-3.1,6.3-7.5,6.3C875.9,265.8,873,265.8,870.1,265.8z"/>
	<g>
		<path class="st1" d="M79,277.1c-3.7-1.6-4.7-3.3-3.9-7.9c2-13.1,4.2-26.2,6.3-39.3c2.5-16,5-32,7.5-48c2.8-17.7,5.6-35.3,8.4-53
			c1.3-8.5,2.6-17,4-25.5c0.8-4.9,4.2-7.5,9.2-7.5c23.3,0,46.5-0.2,69.8,0.1c10.4,0.1,20.6,1.8,30,6.4c14.9,7.3,22.9,21.8,21.2,38.3
			c-0.2,1.6-0.3,3.2-0.5,4.9c-0.2,0.5-0.4,1.1-0.5,1.6c-0.6-0.1-100.1,63.3-100.4,66.5c-0.3,0.9-0.7,1.9-0.9,2.8
			c-2.6,16.8-5.2,33.5-7.9,50.3c-0.5,3.4-1.5,7.2-2.2,10.6C118.4,277.3,81.2,278,79,277.1z"/>
		<path class="st0" d="M690.7,137.6c9.4,0,18.9-0.3,28.3,0.1c7.9,0.3,15.4,2.5,21.9,7.3c6.3,4.6,9.9,11,10.7,18.6
			c1.6,15.7-1.7,30.4-11.6,43c-7.3,9.3-17.3,14.1-28.8,15.4c-8.5,1-17.2,0.9-25.8,1.1c-5.1,0.1-7.1,1.8-7.8,6.8
			c-1.6,10.6-3.3,21.1-5,31.7c-0.4,2.6-2.2,4.2-4.9,4.2c-7.7,0.1-15.4,0.1-23.2,0c-3.2,0-4.7-1.9-4.1-5.2c3.6-23,7.2-46,10.9-69
			c2.4-15.6,4.9-31.2,7.3-46.7c0.9-5.7,3.1-7.6,8.9-7.6c7.7,0,15.4,0,23.2,0C690.7,137.3,690.7,137.4,690.7,137.6z M682.7,197.4
			c7-0.4,13.3-0.3,19.6-1.1c7.7-1.1,12.5-5.8,14.1-13.5c0.3-1.4,0.5-2.9,0.7-4.3c1.1-8.5-3-13.9-11.5-14.8
			c-4.4-0.4-8.9-0.5-13.3-0.5c-3.2-0.1-4.3,1-4.8,4.3c-0.7,4.4-1.4,8.8-2.1,13.1C684.5,185.9,683.6,191.3,682.7,197.4z"/>
		<path class="st1" d="M363.1,136.8c10.1,0.4,20.1,0.6,30.2,1.3c5.7,0.4,11.2,2.3,16.2,5.4c7.8,4.7,12.1,11.8,12.9,20.7
			c1.3,13.5-1.4,26.3-8.5,37.9c-7.5,12.3-19.2,18.4-33.1,19.9c-8,0.9-16.1,0.7-24.2,0.8c-5.5,0.1-7.4,1.7-8.3,7.2
			c-1.6,9.9-3.1,19.7-4.7,29.6c-0.7,4.2-2.9,6-7,6.1c-6.9,0.1-13.8,0.1-20.7,0c-3.5,0-5-1.8-4.5-5.2c3.5-22.3,7-44.7,10.6-67
			c2.6-16.3,5.1-32.6,7.7-49c0.9-5.6,2.8-7.3,8.5-7.3c8.4,0,16.7,0,25.1,0C363.1,137.1,363.1,137,363.1,136.8z M353.4,196.8
			c5.9,0,11.4,0.5,16.9-0.1c11.3-1.2,16-6.3,17.5-17.6c0.1-0.5,0.1-0.9,0.2-1.4c0.6-8-3.1-13-11-14c-4.9-0.6-10-0.5-14.9-0.6
			c-2.2,0-3.4,1.4-3.8,3.6C356.5,176.7,355,186.8,353.4,196.8z"/>
		<path class="st0" d="M230.4,147.3C230.6,146.7,230.3,147.7,230.4,147.3c0.9,0.5,1.2,0.8,1.9,1.2c9.6,5.9,14.4,14.7,15,25.7
			c1,18.2-3.3,35-14.9,49.3c-8.9,11-21.1,16.4-34.8,18.4c-6.2,0.9-12.5,1-18.7,1.2c-6.4,0.2-9,2.2-10,8.4c-2.1,13-4.2,26-6.1,39
			c-0.8,5.8-3.4,9.6-10.8,9.4c-9.9-0.3-19.8-0.1-29.7-0.1c-4.3,0-6.3-2.4-5.6-6.6c0.8-5.1,2.3-15.8,2.3-15.8l0.1-0.4
			c0,0,1.6-6.7,2.1-10.1c2.7-16.8,5.2-33.5,7.9-50.3c0.2-1,0.6-1.9,0.9-2.8c2.3-3.6,5.7-4.6,9.8-4.7c11.4-0.3,22.9,0.2,34.2-1.3
			c24.6-3.3,42.3-16.4,51.2-40C227.7,161.1,228.7,154.1,230.4,147.3z"/>
		<path class="st1" d="M493.3,189.4c0.4-2.4,0.7-4,0.9-5.6c0.3-2.5,1.7-3.8,4.2-3.8c7.2,0,14.4-0.1,21.5,0c3.1,0,4.6,2,4.1,5
			c-3.9,24.9-7.9,49.8-11.8,74.7c-0.6,3.8-3,5.9-6.9,5.9c-6.2,0.1-12.4,0-18.5,0c-3.7,0-5.1-1.7-4.6-5.3c0.2-1.4,0.4-2.9,0.6-4.1
			c-3.8,2.4-7.5,5.2-11.6,7.2c-10.4,5.1-21.4,5.7-32.3,2.3c-13.9-4.3-20.7-14.9-22.7-28.6c-3.5-23.7,11-51.2,38.3-57.9
			c8.5-2.1,17.1-1.8,25.6,0.4C485.4,181.1,490,183.7,493.3,189.4z M465.1,244.2c12.3-0.6,21.3-8,24-19.6c2.8-12.2-3.6-21.7-16.1-23
			c-12.2-1.2-24.5,6.8-26.8,21.3C444.3,235.7,452.4,244.9,465.1,244.2z"/>
		<path class="st1" d="M580,227.7c4.7-6.9,9.2-13.5,13.6-20.1c5.5-8,10.9-16.1,16.4-24.1c1.6-2.4,3.8-3.5,6.6-3.5
			c6.4,0.1,12.7,0,19.1,0c2.2,0,4.5-0.3,5.8,2.1c1.3,2.5-0.3,4.3-1.6,6.2c-23,33.1-45.9,66.3-68.9,99.4c-6.2,9-4.8,7.8-14.9,7.9
			c-5.1,0-10.2,0.2-15.3-0.1c-1.5-0.1-3.4-0.9-4.3-2c-1.3-1.5-0.4-3.4,0.8-5c6.8-9.5,13.4-19,20.2-28.4c1.7-2.4,1.8-4.3,0.9-6.9
			c-7.6-22-15.1-44.1-22.6-66.2c-1.7-5.1-0.4-7,5-7c6.2,0,12.4,0,18.5,0c4.9,0,6.7,1.3,8.1,6c3.9,12.9,7.7,25.9,11.6,38.9
			C579.2,225.7,579.5,226.5,580,227.7z"/>
		<path class="st2" d="M230.4,147.3c-1.7,6.8-2.8,13.9-5.2,20.4c-8.9,23.6-26.6,36.8-51.2,40c-11.3,1.5-22.8,1-34.2,1.3
			c-4.1,0.1-7.5,1.1-9.8,4.7c0.3-3.2,0.4-6.4,0.9-9.5c1.7-10.8,3.5-21.5,5.2-32.3c1.3-8,2.4-16,3.9-24c0.8-4.3,3.9-6.6,8.3-6.6
			c18,0,36-0.2,53.9,0.1c9,0.2,18,1.5,26.4,5.5C229.2,147.1,229.8,147.1,230.4,147.3z"/>
	</g>
	<path class="st3" d="M811.7,256.5c0.1-0.1,0.1-0.2,0.2-0.2c0,0.1,0,0.1,0,0.1C811.9,256.4,811.8,256.4,811.7,256.5
		C811.7,256.4,811.7,256.5,811.7,256.5z"/>
</g>
<g>
	<g>
		<rect x="980.1" y="54.2" class="st3" width="461.6" height="296.9"/>
		<path class="st4" d="M1436.2,59.7v285.9H985.6V59.7H1436.2 M1447.2,48.7H974.6v307.9h472.6V48.7L1447.2,48.7z"/>
	</g>
	<g>
		<path class="st5" d="M1326.2,250.6c-2.2,6-4.3,12-6.5,18.1c-11,0-22,0-32.9,0c2.3-5.6,4.7-11.3,7-16.9c1.5-3.7,3.1-7.4,4.7-11.1
			c1.3-3.2,2.6-6.5,4-9.7c1.5-3.7,3.1-7.4,4.7-11.1c2.3-5.4,4.7-10.9,6.9-16.3c1.9-4.5,3.7-9,5.5-13.5c1.5-3.7,3-7.4,4.7-11.1
			c1.6-3.5,2.9-7,4.4-10.5c1.7-3.9,3.4-7.8,5-11.7c0.6-1.4,1.1-2.7,1.9-4c1.7-2.5,4-4.2,6.7-5.4c1.3-0.6,2.7-0.9,4.1-0.9
			c9.2,0,18.5,0,27.9,0c0.3,1.2,0.7,2.4,0.9,3.6c0.6,3.4,1.3,6.9,2.1,10.3c0.5,2.2,0.9,4.4,1.3,6.5c0.5,2.2,1,4.4,1.4,6.7
			c0.3,1.4,0.5,2.8,0.8,4.2c0.3,1.6,0.7,3.2,1.1,4.7c0.6,2.7,1.1,5.4,1.7,8c0.5,2.2,0.9,4.5,1.4,6.7c0.5,2.3,0.8,4.7,1.5,7
			c0.6,2.1,0.8,4.3,1.4,6.4c0.6,2.2,0.9,4.5,1.4,6.7c0.5,2.2,1,4.5,1.4,6.7c0.4,1.9,0.7,3.9,1.1,5.8c0.3,1.4,0.7,2.9,1,4.3
			c0.4,2,0.8,4,1.2,6c0.3,1.3,0.6,2.7,0.9,4c0.3,1.4,0.6,2.9,0.9,4.3c0.4,2,0.8,4,1.2,6c0.3,1.7,0.8,3.4,1,5.2
			c0.3,1.9,0.9,3.7,1.3,5.6c0.2,1.1,0.4,2.2,0.6,3.4c-9.8,0-19.4,0-29,0c-1.3-6-2.5-12-3.7-18
			C1366.1,250.4,1328.6,250.3,1326.2,250.6z M1361.7,225.6c-0.1-1.1-0.2-2.1-0.4-3.1c-0.7-3.5-1.5-7-2.2-10.6
			c-0.9-4.4-1.9-8.8-2.8-13.3c-0.7-3.4-1.4-6.8-2.1-10.1c-0.6-2.9-1.3-5.8-2-9c-0.3,0.7-0.6,1.2-0.8,1.6c-1,2.7-1.9,5.4-2.9,8.2
			c-1.7,4.5-3.4,9-5,13.6c-1.4,3.9-2.8,7.8-4.2,11.7c-1.2,3.2-2.4,6.5-3.5,9.7c-0.1,0.3-0.1,0.7-0.2,1.2
			C1344.4,225.6,1353,225.6,1361.7,225.6z"/>
		<path class="st5" d="M1008.3,149.8c0.2-1.1,0.4-2.1,0.6-3.2c0.5,0,0.9-0.1,1.3-0.1c17.5,0,34.9,0,52.4,0c1.8,0,3.4,0.3,5.1,0.8
			c2.6,0.9,4.7,2.6,6.5,4.7c1.5,1.8,2.3,3.8,2.9,6c0.4,1.2,0.6,2.5,0.8,3.7c0.5,2.5,0.9,5.1,1.4,7.7c0.4,2.1,0.8,4.2,1.2,6.3
			c0.3,1.6,0.6,3.2,0.9,4.8c0.3,1.5,0.6,3,0.9,4.5c0.5,2.4,0.8,4.9,1.4,7.3c0.4,1.4,0.5,2.9,0.8,4.3c0.4,2.3,0.8,4.6,1.3,6.9
			c0.3,1.7,0.6,3.4,0.9,5.1c0.4,2.2,0.8,4.4,1.3,6.6c0.3,1.6,0.6,3.3,0.9,4.9c0.4,2.3,0.9,4.6,1.4,6.8c0.2,0.8,0.4,1.6,0.6,2.5
			c0.3-0.3,0.6-0.6,0.8-0.9c0.6-1.4,1.1-2.7,1.6-4.1c1.1-2.8,2.2-5.6,3.3-8.5c1.2-3.1,2.5-6.2,3.7-9.3c1.2-3.1,2.4-6.1,3.6-9.2
			c1.1-2.7,2.2-5.4,3.3-8.2c1.1-2.7,2.2-5.5,3.3-8.2c0.9-2.4,1.9-4.8,2.8-7.2c1.1-2.7,2.2-5.5,3.2-8.2c1.7-4.2,3.3-8.4,5-12.6
			c0.9-2.2,1.7-4.3,2.6-6.4c11,0,21.9,0,32.9,0c-8.5,20.4-17,40.8-25.5,61.1c-8.5,20.3-17.1,40.6-25.6,61c-11,0-22,0-33.1,0
			c-0.1-0.3-0.4-0.6-0.5-1c-0.4-2.1-1.1-4.1-1.6-6.1c-0.4-1.6-0.8-3.2-1.2-4.8c-0.3-1.1-0.6-2.1-0.9-3.2c-0.6-2.1-1.1-4.3-1.6-6.4
			c-0.3-1.1-0.6-2.1-0.9-3.2c-0.5-1.9-0.7-3.9-1.4-5.8c-0.9-2.6-1.3-5.3-2.1-7.9c-1-3.2-1.7-6.5-2.5-9.8c-0.5-2.1-1.2-4.2-1.7-6.3
			c-0.8-3.1-1.4-6.3-2.4-9.4c-0.7-2.4-1.3-4.9-1.9-7.3c-0.8-3.1-1.5-6.3-2.4-9.4c-0.7-2.2-1.2-4.5-1.8-6.7c-0.9-3.3-1.6-6.6-2.5-9.9
			c-0.5-1.8-1-3.5-1.7-5.2c-1-2.2-2.5-4-4.8-5.1c-1.5-0.7-2.9-1.6-4.4-2.3c-2.3-1.1-4.5-2.2-7-2.9c-1.8-0.5-3.4-1.2-5.2-1.8
			c-4.1-1.4-8.3-2.5-12.6-3.4C1010.5,150.4,1009.5,150.2,1008.3,149.8z"/>
		<path class="st5" d="M1198,264.3c1.9-8.9,3.8-17.7,5.7-26.6c1.7,0.8,3.3,1.4,4.8,2.2c2.9,1.4,5.9,2.3,9,3.3
			c1.1,0.4,2.3,0.5,3.4,0.7c2.4,0.4,4.9,0.8,7.4,1.2c0.5,0.1,1,0,1.5,0c1.8,0.1,3.6,0.3,5.4,0.3c4.1-0.1,8.2-0.6,12.1-2.2
			c2.4-1,4.7-2.3,6.2-4.5c1.8-2.7,2.2-5.6,1.3-8.6c-0.4-1.3-1.2-2.5-2.2-3.4c-1.5-1.5-3.2-2.8-5-3.9c-1.5-0.9-3-1.8-4.6-2.7
			c-2.1-1.2-4.3-2.3-6.5-3.4c-2.7-1.4-5.4-2.7-7.9-4.5c-3.4-2.4-6.7-4.8-9.5-7.9c-2.7-3-4.9-6.3-6.3-10c-0.7-1.8-1-3.7-1.4-5.6
			c-0.4-2.1-0.3-4.2-0.2-6.3c0.2-3.5,0.9-6.8,2.2-10.1c1-2.5,2.2-4.9,3.7-7.1c1.7-2.6,3.6-5,5.9-7c3.4-3,7.2-5.6,11.4-7.6
			c4.3-2,8.8-3.6,13.5-4.6c2.1-0.4,4.2-0.7,6.3-1.1c5.2-0.8,10.4-0.6,15.5-0.5c1.7,0,3.3,0.2,5,0.5c1.7,0.4,3.4,0.4,5.1,0.7
			c0.8,0.1,1.6,0.4,2.4,0.6c2.4,0.6,4.8,1.2,7.2,1.9c1.5,0.4,3,1,4.6,1.5c-1.8,8.5-3.6,16.9-5.4,25.5c-0.3,0-0.5,0-0.7-0.1
			c-1.3-0.5-2.6-1-3.8-1.5c-2.6-1.1-5.4-1.8-8.1-2.4c-2.3-0.5-4.7-0.8-7.1-1.1c-2.7-0.3-5.3-0.3-8-0.3c-3.2,0-6.4,0.4-9.4,1.7
			c-2.3,0.9-4.5,2.2-5.9,4.4c-1,1.6-1.7,3.2-1.6,5.1c0.1,1.6,0.9,2.9,1.7,4.1c0.5,0.7,1.2,1.3,1.8,1.9c2.2,2,4.6,3.6,7.3,4.9
			c3.7,1.9,7.4,3.8,11,5.9c3.2,1.9,6.4,3.8,9.4,6.1c2.8,2.2,5.4,4.6,7.5,7.4c2,2.7,3.5,5.5,4.5,8.7c0.7,2.3,1.2,4.6,1.2,7.1
			c0,0.9,0.3,1.8,0.2,2.7c-0.3,4.6-1,9.1-2.8,13.3c-1.5,3.5-3.3,6.7-5.8,9.7c-2.6,3.1-5.5,5.7-8.9,8c-3.4,2.3-7,4-10.8,5.5
			c-2.9,1.2-5.9,1.9-8.9,2.6c-2.6,0.6-5.2,1.1-7.9,1.1c-1,0-1.9,0.2-2.9,0.3c-1,0.1-2,0.2-3,0.2c-2.8,0-5.6,0.1-8.4,0
			c-1.8-0.1-3.7,0-5.5-0.5c-0.2-0.1-0.4,0-0.6,0c-3.8-0.1-7.6-0.8-11.3-1.6c-2.4-0.5-4.7-1.1-7-1.8
			C1202.3,265.9,1200.2,265.1,1198,264.3z"/>
		<path class="st5" d="M1170.8,146.7c10.4,0,20.8,0,31.3,0c-0.6,2.7-1.3,5.3-1.8,8c-0.7,4.2-1.8,8.3-2.6,12.5
			c-0.6,3.5-1.6,7-2.4,10.5c-0.7,3.2-1.3,6.4-1.9,9.5c-0.6,3.1-1.4,6.1-2,9.2c-0.6,2.8-1.1,5.7-1.7,8.5c-0.5,2.4-1.1,4.7-1.6,7.1
			c-0.4,1.9-0.8,3.8-1.2,5.6c-0.5,2-1.1,4-1.4,6.1c-0.3,1.7-0.7,3.4-1,5.1c-0.4,1.6-0.6,3.2-1,4.8c-0.3,1.3-0.6,2.7-0.9,4
			c-0.4,1.6-0.7,3.3-1.1,4.9c-0.4,2-0.7,4-1.2,6c-0.3,1.2-0.6,2.5-0.9,3.7c-0.4,2-0.8,4-1.3,5.9c-0.3,1.2-0.5,2.4-0.7,3.6
			c-0.5,2.4-1,4.7-1.6,7.2c-10.5,0-20.9,0-31.4,0c0.5-2,0.9-4,1.4-5.9c0.6-2.6,1.1-5.3,1.7-7.9c0.7-3.1,1.3-6.2,2-9.4
			c0.4-1.8,0.7-3.7,1.1-5.5c0.6-2.6,1.2-5.1,1.8-7.7c0.6-2.8,1.1-5.6,1.7-8.3c0.7-3.3,1.5-6.6,2.2-9.9c0.3-1.5,0.6-3,0.9-4.5
			c0.5-2,1-4,1.4-6.1c0.3-1.4,0.5-2.8,0.8-4.2c0.4-2,1-4,1.4-6.1c0.5-2.2,0.9-4.5,1.3-6.7c0.2-0.8,0.4-1.6,0.6-2.4
			c0.7-3.5,1.4-6.9,2.2-10.4c0.8-3.7,1.8-7.4,2.4-11.1c0.7-3.9,1.6-7.7,2.5-11.6c0.3-1.2,0.5-2.5,0.7-3.7
			C1170.5,147.2,1170.7,146.9,1170.8,146.7z"/>
	</g>
</g>
<g>
	<g>
		<rect x="1522.7" y="54.2" class="st3" width="461.6" height="296.9"/>
		<path class="st4" d="M1978.8,59.7v285.9h-450.6V59.7H1978.8 M1989.8,48.7h-472.6v307.9h472.6V48.7L1989.8,48.7z"/>
	</g>
	<g>
		<path class="st6" d="M1753.3,252.4c-3.7,3.1-7.8,5.7-12,8c-9.6,5.3-19.8,8.7-30.6,10.2c-10,1.4-19.9,1.1-29.8-0.9
			c-16.8-3.4-31.5-11-43.9-22.7c-12.3-11.6-20.6-25.7-25-42c-3.3-12.4-4-24.9-1.8-37.5c4.5-25.5,17.5-45.6,39-60.1
			c11.7-7.9,24.6-12.6,38.7-14.1c24-2.6,45.7,3.3,65,17.9c0.3,0.2,0.5,0.3,0.8,0.5c0,0.1,0,0.2,0,0.3c-0.3,0.2-0.7,0.3-0.9,0.5
			c-4.2,3.6-8.3,7.3-11.9,11.6c-4.7,5.6-8.8,11.6-12,18.2c-1.4,2.9-2.8,5.8-3.9,8.9c-1.8,5-3.4,10.2-4.1,15.5
			c-0.6,4.4-1.1,8.8-1.3,13.3c-0.2,3.4,0.1,6.8,0.4,10.1c0.4,3.7,0.8,7.5,1.6,11.2c1.1,4.4,2.4,8.8,4,13.1c1.3,3.5,2.9,7,4.7,10.3
			c1.9,3.4,4,6.7,6.4,9.9c2.3,3.1,4.7,6.1,7.4,8.9c3,3.1,6.3,5.9,9.5,8.8C1753.4,252.3,1753.3,252.4,1753.3,252.4z"/>
		<path class="st7" d="M1753.6,112.1c0-0.1,0-0.2,0-0.3c7.2-5.7,15.1-10.2,23.7-13.4c10.3-3.9,21.1-5.7,32.1-5.6
			c18.5,0.2,35.4,5.5,50.5,16.1c14.9,10.5,25.7,24.3,32.3,41.4c4.4,11.4,6.2,23.2,5.8,35.3c-0.7,17-5.8,32.6-15.3,46.7
			c-8.9,13-20.4,23.1-34.5,30.1c-8.5,4.2-17.5,7-27,8.3c-10.1,1.4-20.2,1.1-30.2-0.9c-13.6-2.8-26-8.4-37-16.9
			c-0.2-0.2-0.5-0.3-0.8-0.4c0-0.1,0.1-0.1,0.1-0.2c2.1-1.7,4.2-3.3,6.2-5.2c5.2-4.9,9.7-10.3,13.6-16.3c2.8-4.3,5.2-8.8,7.2-13.5
			c1.9-4.4,3.4-9,4.6-13.6c1.3-5,2.1-10.1,2.4-15.2c0.3-4.5,0-8.9-0.1-13.4c-0.2-5-1.2-9.8-2.3-14.7c-1.6-6.4-3.9-12.6-6.9-18.5
			c-2.3-4.6-5-8.9-8.1-13c-3.8-5-8-9.7-12.7-13.8C1756.1,114,1754.8,113.1,1753.6,112.1z"/>
		<path class="st8" d="M1629.1,316.4c-1.6,0-3.2,0-4.7,0c-0.2,0-0.6-0.5-0.6-0.8c0-2.9,0-5.7,0-8.6c0-4.4,0-8.8,0-13.2
			c0-0.3,0-0.6,0-1.1c1.7,0,3.2,0,4.8,0c0.2,0,0.4,0.4,0.4,0.7c0.1,0.6,0,1.1,0,2.1c2.1-2.7,4.7-3.5,7.7-3.3c3,0.2,5.3,1.6,7.1,4.1
			c1.4-2,3.2-3.4,5.5-3.8c4.9-1,9.5,0.4,11.3,4.8c0.6,1.3,0.8,2.8,0.9,4.2c0.1,4.8,0,9.6,0,14.4c0,0.2,0,0.3-0.1,0.6
			c-1.7,0-3.4,0-5.2,0c0-0.3-0.1-0.5-0.1-0.8c0-4,0-8,0-12c0-0.3,0-0.5,0-0.8c-0.1-3.7-1.8-5.7-5-5.8c-3.3-0.1-5.7,2.1-5.8,5.6
			c-0.1,4.2-0.1,8.4-0.1,12.7c0,1-0.2,1.3-1.2,1.2c-1-0.1-2-0.1-2.9,0c-0.9,0.1-1.2-0.1-1.2-1.1c0.1-4,0-7.9,0-11.9
			c0-1-0.1-2-0.3-2.9c-0.7-2.4-2.3-3.5-4.8-3.5c-2.7,0-4.7,1.4-5.4,3.7c-0.3,0.9-0.4,1.9-0.4,2.9c0,3.9,0,7.8,0,11.7
			C1629.1,315.6,1629.1,315.9,1629.1,316.4z"/>
		<path class="st8" d="M1878.9,295.1c0-3.7,0-7.3,0-10.9c0-0.9,0.2-1.2,1.1-1.1c1.1,0.1,2.2,0.1,3.2,0c0.7,0,0.9,0.2,0.9,0.9
			c0,2.1,0,4.3,0,6.4c0,8.4,0,16.7,0,25.1c0,0.8-0.2,1-1,1c-1.1-0.1-2.2-0.1-3.2,0c-0.9,0.1-1.1-0.3-1-1.1c0.1-0.4,0-0.8,0-1.3
			c-0.2,0-0.3,0-0.4,0.1c-3.1,3.6-9.1,3.8-13.1,1.3c-4.4-2.7-6.1-6.8-5.8-11.8c0.3-5,2.7-8.9,7.5-10.7c4.1-1.6,8.1-1.3,11.5,2.1
			C1878.6,295,1878.7,295,1878.9,295.1z M1872,312.1c4.1,0.1,7.2-3.1,7.2-7.5c0-4.3-2.9-7.5-7-7.6c-4.1-0.1-7.2,3-7.3,7.5
			C1864.8,308.8,1867.8,312,1872,312.1z"/>
		<path class="st8" d="M1831,295.2c0.1-2.6,0.1-2.6,2.5-2.6c0.9,0,1.7,0,2.6,0c0.1,0.3,0.1,0.5,0.1,0.7c0,7.4,0,14.7,0,22.1
			c0,0.8-0.2,1.1-1,1c-1.1-0.1-2.2-0.1-3.2,0c-0.8,0-1.1-0.2-1-1c0-0.5,0-0.9,0-1.5c-0.2,0.1-0.4,0.1-0.4,0.2
			c-3.9,4.5-12.5,3.7-16.5-1.9c-4.6-6.4-2.4-16.1,4.5-19.2c3.7-1.6,7.4-1.7,10.9,0.8C1830,294.2,1830.4,294.7,1831,295.2z
			 M1824.2,312.1c4.2,0,7.1-3.2,7.1-7.6c0-4.4-3-7.5-7.1-7.5c-4.2,0-7.2,3.2-7.2,7.7C1817.1,308.9,1820.1,312.1,1824.2,312.1z"/>
		<path class="st8" d="M1685.4,295.1c0-0.8,0-1.5,0-2.5c1.7,0,3.2,0,4.7,0c0.2,0,0.4,0.3,0.5,0.5c0.1,0.3,0,0.6,0,1
			c0,7.1,0,14.2,0,21.2c0,0.8-0.2,1.1-1,1.1c-1.4-0.1-2.7,0-4.2,0c0-0.9,0-1.6,0-2.7c-1.5,1.6-2.9,2.5-4.7,3
			c-6.7,1.6-13-2.6-14.4-9.3c-1.1-5.5,0.9-10.7,5.2-13.5c3.8-2.6,10.4-2.7,13.5,1.1C1685.1,295,1685.2,295,1685.4,295.1z
			 M1671.5,304.5c0,5.2,4.2,8.6,8.9,7.4c5.7-1.5,6.8-9.1,3.3-12.8c-1.9-2-5.2-2.7-7.9-1.6C1673.1,298.6,1671.5,301.2,1671.5,304.5z"
			/>
		<path class="st8" d="M1748.5,306.5c0.1,2.8,2.3,5,5,5.5c2.9,0.5,5.6-0.1,8-1.7c0.2-0.2,0.5-0.3,0.8-0.5c0.8,1.2,1.6,2.3,2.3,3.4
			c0.1,0.2-0.2,0.8-0.4,1c-2.6,1.9-5.5,2.8-8.7,2.8c-5,0-9-1.9-11.3-6.6c-2.6-5.3-1.5-13.5,4.5-16.9c6.1-3.4,15.6-1.5,17.1,8.4
			c0.2,1.2,0.2,2.4,0.2,3.7c0,0.7-0.3,1-1,1c-5.1,0-10.2,0-15.4,0C1749.2,306.5,1748.9,306.5,1748.5,306.5z M1760.5,302.3
			c-0.6-4.1-3.3-6.1-7.1-5.6c-2.8,0.4-5.2,3.1-4.9,5.6C1752.5,302.3,1756.5,302.3,1760.5,302.3z"/>
		<path class="st8" d="M1714,298.5c-1.7-0.6-3.4-1.2-5-1.6c-1.7-0.4-3.4-0.5-5.1,0.2c-1.2,0.4-2,1.4-1.8,2.4c0.1,1.2,1,1.6,2,1.8
			c2.1,0.4,4.2,0.7,6.3,1.1c1.2,0.3,2.4,0.7,3.4,1.3c2.2,1.2,3.2,3.2,3.1,5.7c-0.1,2.8-1.6,4.7-3.9,6c-2.3,1.2-4.8,1.6-7.3,1.5
			c-3.1-0.1-6-0.7-8.7-2.3c-0.4-0.2-0.8-0.5-1.2-0.8c0.8-1.4,1.6-2.7,2.5-4c3.3,2.2,6.7,2.9,10.4,2.2c0.7-0.1,1.5-0.5,2-0.9
			c1.3-1,1.1-2.6-0.3-3.3c-0.9-0.4-1.8-0.6-2.8-0.8c-1.9-0.4-3.9-0.6-5.8-1.2c-3.2-0.9-5-3.2-5.1-5.9c-0.1-3.2,1.5-5.9,4.7-7
			c4.9-1.7,9.7-1.1,14.3,1.1c0.6,0.3,0.7,0.6,0.3,1.2C1715.1,296.4,1714.5,297.5,1714,298.5z"/>
		<path class="st8" d="M1720.1,292.6c1.7,0,3.2,0,4.9,0c0-2.1,0.1-4.1,0-6.1c0-0.9,0.2-1.1,1.1-1.1c1.3,0.1,2.7,0,4.1,0
			c0,2.4,0,4.7,0,7.2c2.9,0,5.6,0,8.5,0c0,1.5,0,3,0,4.4c0,0.2-0.5,0.4-0.8,0.4c-2.2,0-4.4,0.1-6.6,0c-0.8,0-1,0.2-1,1
			c0.1,3.2,0,6.4,0,9.5c0,3.3,1.7,4.7,5,3.9c0.8-0.2,1.5-0.4,2.2-0.8c0.6-0.3,0.8-0.3,1,0.4c0.3,1.1,0.8,2.1,1,3.2
			c0.1,0.3-0.2,0.8-0.4,0.9c-3.3,1.7-6.8,2.1-10.3,0.7c-2.3-1-3.4-2.9-3.6-5.3c-0.2-2.1-0.2-4.2-0.2-6.4c0-2.1,0-4.2,0-6.3
			c0-0.6-0.2-0.8-0.8-0.8c-1.1,0-2.2,0-3.2,0c-0.3,0-0.8-0.3-0.8-0.6C1720.1,295.5,1720.1,294.1,1720.1,292.6z"/>
		<path class="st8" d="M1806.6,299.1c-4.4-2.9-8.8-2.8-11.4,0.1c-2.4,2.6-2.5,7.3-0.3,10.2c2.4,3.2,6.4,3.4,11.8,0.6
			c0.8,1.3,1.6,2.5,2.3,3.8c0.1,0.1-0.2,0.6-0.5,0.8c-3.2,2.3-6.8,2.8-10.5,2.1c-5-0.9-8.4-3.7-9.6-8.7c-1.3-5.2-0.3-9.9,4.1-13.5
			c4.2-3.5,11.8-3.5,16.1-0.2c0.2,0.2,0.5,0.7,0.4,0.8C1808.2,296.5,1807.4,297.8,1806.6,299.1z"/>
		<path class="st8" d="M1776.4,295.3c3.3-3.3,6.5-4.1,10-2.5c-0.5,1.6-1,3.2-1.5,4.6c-1.5-0.1-2.8-0.3-4.1-0.2
			c-2,0.1-3.5,1.4-3.9,3.3c-0.2,0.9-0.3,1.9-0.3,2.8c0,4,0,7.9,0,11.9c0,0.4,0,0.8,0,1.3c-1.6,0-3.1,0-4.6,0c-0.2,0-0.5-0.6-0.6-0.9
			c0-3.9,0-7.7,0-11.6c0-3.3,0-6.6,0-10c0-0.4,0-0.8,0-1.2c1.7,0,3.3,0,5.1,0C1776.4,293.4,1776.4,294.2,1776.4,295.3z"/>
		<path class="st8" d="M1848.1,294.9c2.8-3.2,6.1-3.4,9.9-2.3c-0.1,0.4-0.1,0.7-0.2,1c-0.3,1.1-0.7,2.1-1,3.2
			c-0.2,0.7-0.5,0.7-1.2,0.6c-1.3-0.2-2.7-0.3-4-0.1c-2,0.4-2.9,2-3.3,3.9c-0.1,0.7-0.1,1.4-0.2,2.2c0,4,0,8.1,0,12.1
			c0,0.8-0.3,1.1-1,1c-1.2-0.1-2.3,0-3.5,0c-0.6,0-0.8-0.2-0.8-0.8c0-7.4,0-14.7,0-22.1c0-0.6,0.2-0.9,0.9-0.9
			c1.1,0.1,2.2,0.1,3.4,0c0.8,0,1.1,0.2,1,1C1848.1,294,1848.1,294.5,1848.1,294.9z"/>
		<path class="st8" d="M1897.1,315.4c0,1.3-1.2,2.4-2.5,2.4c-1.4,0-2.5-1.2-2.4-2.5c0-1.3,1.3-2.4,2.5-2.3
			C1896.1,312.9,1897.2,314.1,1897.1,315.4z M1894.7,313.5c-1,0-1.8,0.8-1.8,1.7c0,1,0.8,1.8,1.8,1.8c1,0,1.8-0.7,1.8-1.7
			C1896.5,314.3,1895.7,313.5,1894.7,313.5z"/>
		<path class="st7" d="M1895.2,228.7c-0.1,0.4-0.1,0.8-0.2,1.2c-0.1,0-0.2,0-0.3,0.1c-0.1-0.2-0.3-0.5-0.3-0.7c0-0.5-0.1-1.1,0-1.6
			c0-0.3,0.3-0.6,0.4-0.9c0.3,0.2,0.6,0.4,0.8,0.7c0.2,0.3,0.3,0.7,0.6,1.3c0.3-0.6,0.4-1.1,0.7-1.4c0.2-0.2,0.5-0.4,0.7-0.5
			c0.1,0.2,0.4,0.5,0.4,0.7c0.1,0.6,0.1,1.2,0,1.8c0,0.2-0.2,0.4-0.3,0.6c-0.1,0-0.2,0-0.3-0.1c-0.1-0.4-0.1-0.8-0.3-1.4
			C1896.6,229.7,1896,230,1895.2,228.7z"/>
		<path class="st7" d="M1893.8,226.9c-1.3,0.5-0.8,1.6-0.9,2.5c0,0.2-0.3,0.3-0.4,0.5c-0.1-0.2-0.2-0.3-0.3-0.5c0-0.1,0-0.3,0-0.4
			c0-0.8,0.5-1.8-1.3-1.8c0.1-0.1,0.2-0.2,0.3-0.3C1892.1,226.9,1893,226.9,1893.8,226.9z"/>
		<path class="st9" d="M1753.6,112.1c1.2,1,2.5,1.9,3.7,2.9c4.7,4.2,8.9,8.8,12.7,13.8c3.1,4.1,5.8,8.5,8.1,13
			c3,5.9,5.3,12.1,6.9,18.5c1.2,4.8,2.1,9.7,2.3,14.7c0.2,4.5,0.4,9,0.1,13.4c-0.3,5.1-1.1,10.2-2.4,15.2c-1.2,4.6-2.7,9.2-4.6,13.6
			c-2,4.7-4.5,9.2-7.2,13.5c-3.9,6-8.4,11.4-13.6,16.3c-2,1.8-4.1,3.5-6.2,5.2c-3.2-2.9-6.5-5.7-9.5-8.8c-2.7-2.8-5.1-5.8-7.4-8.9
			c-2.3-3.2-4.5-6.5-6.4-9.9c-1.8-3.3-3.4-6.8-4.7-10.3c-1.6-4.3-2.9-8.6-4-13.1c-0.9-3.7-1.3-7.4-1.6-11.2
			c-0.3-3.4-0.6-6.8-0.4-10.1c0.2-4.4,0.7-8.9,1.3-13.3c0.7-5.3,2.3-10.5,4.1-15.5c1.1-3,2.5-6,3.9-8.9c3.2-6.6,7.3-12.5,12-18.2
			c3.6-4.3,7.6-8,11.9-11.6C1752.9,112.3,1753.3,112.2,1753.6,112.1z"/>
		<path class="st8" d="M1893.8,316.2c0.3-0.7-0.6-1.8,0.6-2c2.1-0.3,1,1.3,1.1,2.3c-0.4-0.3-0.6-0.5-0.9-0.7
			c-0.2,0.2-0.3,0.4-0.5,0.5C1894,316.3,1893.9,316.3,1893.8,316.2z"/>
	</g>
</g>
<g>
	<g>
		<rect x="2065.3" y="54.2" class="st3" width="461.6" height="296.9"/>
		<path class="st4" d="M2521.4,59.7v285.9h-450.6V59.7H2521.4 M2532.4,48.7h-472.6v307.9h472.6V48.7L2532.4,48.7z"/>
	</g>
	<g>
		<path class="st10" d="M2296.2,112.8c6.8-5.4,14.3-9.6,22.3-12.8c7.1-2.8,14.5-4.6,22-5.4c24.3-2.4,46.1,3.9,65.1,19.3
			c15.6,12.7,25.5,29,30.1,48.5c2,8.8,2.5,17.7,1.8,26.6c-1.4,17.1-7.3,32.4-17.8,46c-12.7,16.4-29.1,27.1-49.3,32
			c-7.7,1.9-15.5,2.7-23.4,2.3c-18.6-0.8-35.3-6.8-50.1-18c-0.3-0.2-0.5-0.4-0.7-0.6c1.6-1.5,3.3-2.9,4.9-4.4
			c5-4.7,9.6-9.9,13.4-15.6c5.1-7.6,9-15.8,11.5-24.6c2.1-7.3,3.3-14.8,3.4-22.5c0.1-6.3-0.4-12.5-1.6-18.6
			c-1.9-10-5.4-19.5-10.8-28.1c-2.7-4.3-5.7-8.5-8.9-12.4c-2.3-2.8-5-5.2-7.6-7.7C2299.2,115.4,2297.7,114.1,2296.2,112.8z"/>
		<path class="st11" d="M2296,250.7c-10.6,8.4-22.6,14-35.8,16.7c-16.9,3.5-33.6,2.5-49.6-3.9c-26.5-10.5-44.2-29.5-52.6-56.8
			c-9.8-32.2-0.1-66.9,24.8-89.6c13.1-12,28.4-19.5,46-22c24.8-3.6,47.2,2.3,67.1,17.6c0,0,0.1,0.1,0.1,0.1
			c-0.3,0.3-0.6,0.6-0.9,0.9c-4.3,3.5-8.3,7.4-11.9,11.6c-12,14.4-18.8,30.9-20.3,49.6c-0.7,8.7-0.1,17.3,1.8,25.8
			c4.1,18.2,13.1,33.5,26.8,46.1C2293,248.1,2294.5,249.4,2296,250.7z"/>
		<path class="st12" d="M2296,250.7c-1.5-1.3-3-2.6-4.5-4c-13.7-12.6-22.7-27.9-26.8-46.1c-1.9-8.5-2.5-17.1-1.8-25.8
			c1.6-18.7,8.3-35.2,20.3-49.6c3.6-4.3,7.5-8.1,11.9-11.6c0.3-0.3,0.6-0.6,0.9-0.9c0.1,0,0.1,0,0.2,0c1.5,1.3,3,2.6,4.4,4
			c2.6,2.5,5.3,4.9,7.6,7.7c3.2,4,6.2,8.1,8.9,12.4c5.4,8.7,8.8,18.1,10.8,28.1c1.2,6.2,1.7,12.4,1.6,18.6
			c-0.2,7.6-1.3,15.1-3.4,22.5c-2.5,8.8-6.4,17-11.5,24.6c-3.9,5.7-8.4,10.9-13.4,15.6c-1.6,1.5-3.3,2.9-4.9,4.4
			C2296.2,250.7,2296.1,250.7,2296,250.7L2296,250.7z"/>
		<path class="st13" d="M2237.6,313.4c-1.8,0-3.4,0-5.2,0c0-0.8,0-1.5,0-2.3c0-3.7,0-7.5,0-11.2c0-3.5-1.7-5.4-4.8-5.5
			c-3.3-0.1-5.6,1.8-5.8,5.1c-0.2,2.7-0.1,5.4-0.1,8.1c0,1.9,0,3.8,0,5.7c-1.7,0-3.3,0-5.1,0c0-4.1,0-8.1,0-12.1
			c0-0.8-0.1-1.7-0.2-2.5c-0.4-2.9-2-4.4-4.8-4.5c-3-0.1-5.2,1.6-5.6,4.5c-0.2,1.5-0.2,3-0.2,4.5c0,3.3,0,6.6,0,10c-1.6,0-3.3,0-5,0
			c0-7.6,0-15.3,0-23.1c1.6,0,3.2,0,4.9,0c0,0.8,0,1.6,0,2.8c2.1-2.7,4.6-3.7,7.6-3.5c3,0.2,5.3,1.5,7,4.1c2.3-3.3,5.5-4.5,9.3-4
			c4.9,0.6,7.8,3.6,8,8.6c0.2,4.7,0,9.4,0.1,14.1C2237.6,312.6,2237.6,312.9,2237.6,313.4z"/>
		<path class="st13" d="M2261,313.3c0-0.8,0-1.6,0-2.2c-1.4,0.8-2.8,1.9-4.4,2.4c-6.2,1.9-12.7-2-14.2-8.5c-1.5-6,1.2-12,6.4-14.4
			c3.6-1.6,8.7-1.7,12.1,2.2c0-0.9,0-1.7,0-2.6c1.7,0,3.4,0,5.1,0c0,7.7,0,15.3,0,23.1C2264.4,313.3,2262.8,313.3,2261,313.3z
			 M2261.3,301.9c0-3.5-1.8-6.2-4.7-7.2c-3.2-1-6.5,0.1-8.2,2.8c-1.9,3-1.4,7.3,0.9,9.7c1.9,1.9,5,2.5,7.7,1.5
			C2259.7,307.7,2261.2,305.1,2261.3,301.9z"/>
		<path class="st13" d="M2294.1,303.7c-3,0-5.8,0-8.7,0c-2.8,0-5.7,0-8.5,0c0.5,5.8,7.7,7.6,13.6,3.3c0.8,1.2,1.6,2.4,2.5,3.7
			c-2.6,2.3-5.7,3.2-9.1,3.3c-5.2,0.2-9.6-2.6-11.4-7.1c-2-5-0.8-11.3,2.9-14.5c3.6-3.1,7.8-3.7,12.1-1.9c4.4,1.8,6.1,5.5,6.6,10
			C2294.2,301.5,2294.1,302.6,2294.1,303.7z M2288.8,299.7c-0.7-3.7-2.6-5.5-5.8-5.5c-3.3,0-5.5,2-6.1,5.5
			C2280.8,299.7,2284.8,299.7,2288.8,299.7z"/>
		<path class="st13" d="M2378.8,314.2c-7.2,0-12.6-5.3-12.6-12.3c0.1-7,5.5-12.2,12.6-12.3c7.1,0,12.6,5.3,12.6,12.3
			C2391.4,308.9,2386,314.2,2378.8,314.2z M2378.9,294.4c-4.3,0-7.3,3-7.3,7.4c0,4.4,3,7.6,7.3,7.6c4.3,0,7.4-3.2,7.4-7.5
			C2386.2,297.6,2383.1,294.4,2378.9,294.4z"/>
		<path class="st13" d="M2318.6,292c-0.8,1.4-1.5,2.7-2.2,4.1c-2.7-1.4-5.5-2.2-8.6-1.8c-0.5,0.1-1.1,0.2-1.6,0.4
			c-1,0.4-1.6,1.1-1.6,2.3c0.1,1.1,0.9,1.6,1.8,1.8c1.9,0.4,3.8,0.6,5.7,1c1,0.2,2.1,0.5,3,0.9c2.2,0.9,3.7,2.6,3.9,5
			c0.2,2.6-0.7,4.8-2.9,6.3c-2,1.4-4.2,1.9-6.6,2c-3.5,0.2-6.8-0.4-9.9-2.1c-0.4-0.2-0.8-0.5-1.3-0.8c0.8-1.3,1.5-2.6,2.2-3.7
			c1.8,0.6,3.4,1.5,5.2,1.8c1.8,0.3,3.7,0.1,5.6,0c0.5,0,1-0.3,1.4-0.6c1.5-1,1.4-2.9-0.3-3.5c-1.6-0.6-3.3-0.7-4.9-1.1
			c-1.5-0.4-3-0.6-4.4-1.2c-2.3-0.9-3.7-2.6-3.9-5.2c-0.2-2.6,0.8-4.7,2.9-6.2c1.6-1.1,3.5-1.6,5.4-1.7
			C2311.6,289.4,2315.1,290,2318.6,292z"/>
		<path class="st13" d="M2328.2,294.8c-1.6,0-3.1,0-4.7,0c0-1.5,0-3,0-4.5c1.5,0,3,0,4.7,0c0-1.3,0-2.5,0-3.6c0-1.1,0-2.3,0-3.4
			c1.7,0,3.3,0,5.1,0c0,2.3,0,4.6,0,7c2.8,0,5.5,0,8.3,0c0,1.6,0,3.1,0,4.6c-2.7,0-5.4,0-8.2,0c0,3.8-0.1,7.6,0,11.3
			c0.1,2.5,1.8,3.6,4.6,3c1-0.2,2-0.6,3.2-1c0.4,1.2,0.9,2.5,1.3,3.9c0.1,0.2-0.2,0.6-0.4,0.7c-3.3,1.7-6.8,2.1-10.2,0.6
			c-2.4-1.1-3.4-3.3-3.5-5.8c-0.2-3.7-0.1-7.5-0.2-11.2C2328.2,295.7,2328.2,295.3,2328.2,294.8z"/>
		<path class="st13" d="M2362.4,294.8c-1.1-0.2-2-0.4-3-0.4c-3.1-0.1-5,1.5-5.1,4.6c-0.2,4.3-0.1,8.7-0.1,13c0,0.4,0,0.8,0,1.3
			c-1.7,0-3.3,0-5,0c0-7.7,0-15.4,0-23.1c1.6,0,3.2,0,4.9,0c0,0.8,0,1.6,0,2.5c3.9-3.3,6.2-3.9,9.8-2.4
			C2363.4,291.8,2362.9,293.4,2362.4,294.8z"/>
		<path class="st10" d="M2435.1,232.6c0,1.3,0,2.4,0,3.5c-0.1,0-0.3,0-0.4,0.1c-0.1-0.6-0.2-1.2-0.3-1.8c-0.4,0.5-0.7,0.9-1.1,1.4
			c-0.4-0.4-0.8-0.9-1.2-1.4c-0.1,0.6-0.2,1.2-0.3,1.8c-0.1,0-0.2,0-0.4,0c0-1.1,0-2.2,0-3.4c1.4-0.1,1,1.5,1.8,2
			C2434,234.1,2433.7,232.6,2435.1,232.6z"/>
		<path class="st13" d="M2394.9,312.4c0-1.3,1-2.3,2.3-2.3c1.3,0,2.4,1,2.4,2.3c0,1.3-1,2.3-2.3,2.3
			C2396,314.7,2395,313.7,2394.9,312.4z M2397.2,314.1c1,0,1.8-0.7,1.8-1.8c0-1-0.8-1.8-1.8-1.8c-1,0-1.8,0.8-1.8,1.8
			C2395.5,313.4,2396.2,314.1,2397.2,314.1z"/>
		<path class="st10" d="M2428.8,233.4c-0.3-0.1-0.6-0.2-0.9-0.3c0-0.1,0-0.2,0-0.3c0.9,0,1.9,0,2.7,0c-0.3,0.5-0.7,0.9-0.9,1.4
			c-0.2,0.6-0.1,1.2-0.3,1.9C2428.6,235.3,2429.1,234.3,2428.8,233.4z"/>
		<path class="st13" d="M2397.9,313.4c-0.3-0.2-0.5-0.5-0.9-0.7c-0.1,0.3-0.2,0.5-0.3,0.7c-0.1,0-0.1,0-0.2,0c0-0.7,0-1.3,0-2.1
			c0.3,0,0.7-0.1,1.1,0c0.5,0.1,0.9,0.4,0.5,1.1C2397.9,312.6,2397.9,313,2397.9,313.4z"/>
	</g>
</g>
<g>
	<path class="st14" d="M2602.4,351.7c0-51,0-102,0-153.1c4.3,0,8.6,0,12.9,0c0.7,0,1.1-0.2,1.4-0.9c0.7-1.9,1.5-3.8,2.2-5.7
		c0.2-0.7,0.6-0.9,1.3-0.9c2.1,0,4.1,0,6.2,0.1c0.4,0,1,0.4,1.2,0.8c0.8,1.8,1.6,3.6,2.2,5.5c0.3,0.9,0.8,1.2,1.8,1.2
		c36.9,0,73.7,0,110.6,0c0.4,0,0.9,0,1.5,0c0-2.5,0-4.8,0-7.4c1.9,2.3,3.6,4.4,5.2,6.5c0.5,0.6,1,0.9,1.9,0.9c9.3,0,18.7,0,28,0
		c0.4,0,0.8,0,1.3-0.1c0-1.7,0-3.3,0-5.1c0.4,0.3,0.7,0.5,0.9,0.7c3.4,2.6,7.1,4.3,11.4,4.3c6.7,0.1,13.5,0,20.2,0.1
		c0.6,0,1-0.2,1.2-0.8c0.7-1.9,1.5-3.8,2.2-5.7c0.3-0.8,0.7-1,1.5-1c1.9,0,3.8,0.1,5.7,0c0.9,0,1.4,0.2,1.8,1.2
		c0.6,1.8,1.4,3.5,2.1,5.3c0.3,0.8,0.7,1.1,1.6,1.1c9.1,0,18.3,0,27.4,0c0.4,0,0.8,0,1.3-0.1c0-2.7,0-5.2,0-7.8
		c1.7,2.3,3.2,4.5,4.6,6.9c0.4,0.7,0.9,1,1.8,1c6,0,12,0,18,0c0.4,0,0.8,0,1.2,0c0-15.8,0-31.5,0-47.2c-6.8,0-13.5,0-20.4,0
		c0,2.7,0,5.3,0,8.2c-1.8-2.6-3.4-4.9-4.9-7.3c-0.5-0.7-1-1-1.8-1c-5.9,0-11.9,0-17.8,0c-0.4,0-0.8,0-1.3,0.1c0,4.7,0,9.4,0,14
		c-0.3-0.2-0.4-0.5-0.5-0.7c-1.8-4.1-3.6-8.2-5.3-12.3c-0.3-0.7-0.6-0.9-1.4-0.9c-11.4,0-22.9-0.1-34.3-0.1c-5.3,0-10,1.5-14.3,4.7
		c-0.2,0.2-0.5,0.3-1,0.6c0-1.9,0-3.5,0-5.2c-36.3,0-72.5,0-108.7,0c-1.2,3.5-2.4,6.9-3.7,10.6c-1.2-3.4-2.3-6.5-3.4-9.6
		c-0.3-0.8-0.6-1.1-1.5-1.1c-7.3,0-14.7,0-22,0c-0.4,0-0.7,0-1.2,0.1c0,4.8,0,9.4,0,14.1c-0.3-0.3-0.5-0.7-0.7-1.1
		c-1.7-4-3.5-8-5.2-12c-0.3-0.8-0.7-1.1-1.6-1.1c-5.7,0.1-11.5,0.1-17.2,0c-0.9,0-1.3,0.3-1.6,1.1c-3.3,7.9-6.7,15.7-10.1,23.5
		c-0.2,0.4-0.5,0.8-0.7,1.2c0-42.1,0-84.3,0-126.4c100.3,0,200.6,0,300.9,0c0,53.6,0,107.2,0,160.8c0,0.5,0,1.1,0,1.6
		c-0.6,0-1.3,0-1.9,0c-58.8,0-117.7,0-176.5-0.1c-2.2,0-3.8,0.5-5,2.4c-1,1.6-2.4,3.1-3.6,4.6c-1.6-2.1-3.2-4-4.6-6
		c-0.5-0.7-1.1-1-2-1c-15.8,0-31.7,0-47.5,0c-0.4,0-0.8,0-1.3,0.1c0,15.8,0,31.4,0,47.1c0.4,0,0.8,0.1,1.2,0.1c15.8,0,31.7,0,47.5,0
		c0.5,0,1.3-0.4,1.6-0.8c1.6-2,3.2-4.1,4.8-6.3c1.6,2.2,3.2,4.2,4.7,6.2c0.5,0.7,1,0.9,1.9,0.9c9.2,0,18.3,0,27.5,0
		c0.4,0,0.8,0,1.3-0.1c0-3.6,0-7.2,0-10.8c5.2-0.2,10.3,0.6,15.3-1.8c0,4.3,0,8.4,0,12.6c6.7,0,13.2,0,19.8,0c0-2.4,0-4.7,0-7.4
		c1.8,2.2,3.4,4.1,4.9,6.1c0.7,0.9,1.5,1.3,2.7,1.3c31.9,0,63.8-0.1,95.7,0c4.8,0,9.2-0.7,13.3-3.2c0,0.3,0,0.6,0,0.9
		c0,30.8,0,61.6,0,92.4c0,0.4,0,0.7-0.1,1.1c-0.6,0-1.1,0-1.6,0c-99.2,0-198.4,0-297.7,0C2603.4,351.8,2602.9,351.7,2602.4,351.7z"
		/>
	<path class="st15" d="M2602.4,177.3c0.2-0.4,0.5-0.8,0.7-1.2c3.4-7.8,6.7-15.7,10.1-23.5c0.3-0.8,0.7-1.1,1.6-1.1
		c5.7,0.1,11.5,0.1,17.2,0c0.9,0,1.3,0.3,1.6,1.1c1.7,4,3.4,8,5.2,12c0.2,0.4,0.3,0.7,0.7,1.1c0-4.7,0-9.3,0-14.1
		c0.5,0,0.8-0.1,1.2-0.1c7.3,0,14.7,0,22,0c0.9,0,1.2,0.3,1.5,1.1c1.1,3.1,2.2,6.2,3.4,9.6c1.3-3.7,2.5-7.1,3.7-10.6
		c36.2,0,72.4,0,108.7,0c0,1.7,0,3.3,0,5.2c0.4-0.3,0.7-0.4,1-0.6c4.3-3.1,9.1-4.7,14.3-4.7c11.4,0,22.9,0.1,34.3,0.1
		c0.8,0,1.1,0.3,1.4,0.9c1.8,4.1,3.5,8.2,5.3,12.3c0.1,0.3,0.2,0.5,0.5,0.7c0-4.6,0-9.3,0-14c0.5,0,0.9-0.1,1.3-0.1
		c5.9,0,11.9,0,17.8,0c0.9,0,1.3,0.3,1.8,1c1.5,2.4,3.1,4.7,4.9,7.3c0-2.9,0-5.5,0-8.2c6.9,0,13.6,0,20.4,0c0,15.7,0,31.3,0,47.2
		c-0.4,0-0.8,0-1.2,0c-6,0-12,0-18,0c-0.9,0-1.4-0.3-1.8-1c-1.4-2.3-2.9-4.6-4.6-6.9c0,2.6,0,5.1,0,7.8c-0.5,0-0.9,0.1-1.3,0.1
		c-9.1,0-18.3,0-27.4,0c-0.9,0-1.3-0.3-1.6-1.1c-0.6-1.8-1.4-3.5-2.1-5.3c-0.3-0.9-0.8-1.2-1.8-1.2c-1.9,0.1-3.8,0.1-5.7,0
		c-0.8,0-1.2,0.2-1.5,1c-0.7,1.9-1.5,3.8-2.2,5.7c-0.2,0.6-0.5,0.8-1.2,0.8c-6.7,0-13.5,0.1-20.2-0.1c-4.3-0.1-8.1-1.7-11.4-4.3
		c-0.3-0.2-0.5-0.4-0.9-0.7c0,1.8,0,3.4,0,5.1c-0.5,0-0.9,0.1-1.3,0.1c-9.3,0-18.7,0-28,0c-0.8,0-1.4-0.3-1.9-0.9
		c-1.7-2.1-3.4-4.2-5.2-6.5c0,2.6,0,4.9,0,7.4c-0.6,0-1.1,0-1.5,0c-36.9,0-73.7,0-110.6,0c-1,0-1.5-0.3-1.8-1.2
		c-0.7-1.9-1.4-3.7-2.2-5.5c-0.2-0.4-0.8-0.8-1.2-0.8c-2-0.1-4.1,0-6.2-0.1c-0.7,0-1,0.2-1.3,0.9c-0.7,1.9-1.5,3.8-2.2,5.7
		c-0.3,0.7-0.6,0.9-1.4,0.9c-4.3,0-8.6,0-12.9,0c0-2,0-4,0-6c3,0,6,0,9,0c0.7,0,1-0.2,1.3-0.9c0.7-1.8,1.4-3.6,2.1-5.4
		c0.2-0.7,0.6-0.9,1.3-0.9c4.8,0,9.6,0,14.4,0c0.8,0,1.1,0.3,1.3,1c0.7,1.8,1.4,3.6,2.1,5.4c0.1,0.3,0.6,0.7,0.9,0.7
		c3.1,0.1,6.2,0,9.4,0c-0.1-0.3-0.1-0.6-0.2-0.8c-4.8-11.3-9.7-22.5-14.5-33.8c-0.3-0.7-0.7-0.9-1.4-0.9c-3.1,0-6.2,0.1-9.3,0
		c-1,0-1.4,0.3-1.7,1.2c-4.7,10.9-9.4,21.8-14,32.7c-0.2,0.4-0.5,0.8-0.7,1.3C2602.4,187.3,2602.4,182.3,2602.4,177.3z
		 M2645.5,157.2c0,11.9,0,23.6,0,35.3c3,0,5.8,0,8.8,0c0-8.5,0-16.9,0-25.3c0.3,0.3,0.5,0.7,0.6,1.1c2.8,7.7,5.6,15.4,8.3,23.1
		c0.3,0.9,0.7,1.2,1.7,1.2c1.8-0.1,3.6-0.1,5.4,0c0.9,0,1.2-0.3,1.5-1.1c2.8-7.8,5.6-15.7,8.4-23.5c0.1-0.3,0.3-0.6,0.4-0.9
		c0.1,0,0.2,0,0.2,0.1c0,8.4,0,16.9,0,25.3c2.9,0,5.8,0,8.7,0c0-11.8,0-23.5,0-35.4c-4.3,0-8.5,0-12.8,0c-0.9,0-1.2,0.3-1.5,1.1
		c-2.3,6.8-4.7,13.5-7.1,20.2c-0.1,0.4-0.3,0.8-0.6,1.4c-0.3-0.8-0.5-1.3-0.7-1.9c-2.4-6.6-4.7-13.1-7-19.7
		c-0.3-0.9-0.7-1.2-1.6-1.1c-1.3,0.1-2.7,0-4,0C2651.4,157.2,2648.4,157.2,2645.5,157.2z M2851.7,192.6c0-7.5,0-14.8,0-22.6
		c0.4,0.7,0.7,1,0.9,1.3c4.4,6.8,8.8,13.6,13.2,20.3c0.2,0.4,0.7,0.9,1,0.9c3.4,0.1,6.8,0,10.3,0c0-11.9,0-23.6,0-35.3
		c-3,0-5.8,0-8.8,0c0,7.3,0,14.5,0,22c-0.4-0.6-0.7-1-0.9-1.4c-3.9-6-7.9-12-11.7-18.2c-1.2-2-2.5-2.8-4.9-2.6
		c-2.6,0.2-5.3,0.1-8,0.1c0,11.9,0,23.6,0,35.4C2845.7,192.6,2848.6,192.6,2851.7,192.6z M2752.1,179.7c0.5-0.1,0.8-0.2,1.1-0.3
		c8.8-2.1,10.9-12.5,5.8-18.2c-2.6-2.9-6-3.9-9.7-4c-6.2,0-12.4,0-18.6,0c-0.3,0-0.6,0.1-1,0.1c0,11.8,0,23.5,0,35.2
		c3,0,5.9,0,8.9,0c0-4.2,0-8.3,0-12.5c0.7,0,1.3,0.1,2,0c1.2-0.1,2,0.2,2.8,1.2c2.9,3.6,5.9,7.1,8.9,10.6c0.4,0.4,1.1,0.8,1.7,0.8
		c2.9,0.1,5.8,0,8.7,0c0.3,0,0.6-0.1,1-0.1C2759.7,188.2,2755.9,184,2752.1,179.7z M2724,171.2c-6.5,0-12.9,0-19.3,0
		c0-2.1,0-4,0-6.1c6.6,0,13.2,0,19.7,0c0-2.7,0-5.3,0-7.8c-9.6,0-19.2,0-28.7,0c0,11.8,0,23.5,0,35.2c9.6,0,19.2,0,28.7,0
		c0-2.6,0-5.1,0-7.7c-6.6,0-13.2,0-19.7,0c0-2.1,0-4.1,0-6.3c6.5,0,12.8,0,19.3,0C2724,176.1,2724,173.8,2724,171.2z M2799.8,192.6
		c3.3,0,6.3,0,9.3,0c0.3,0,0.8-0.4,0.9-0.8c0.8-1.8,1.4-3.7,2.2-5.4c0.2-0.4,0.7-0.8,1.1-0.8c4.9-0.1,9.7,0,14.6-0.1
		c0.7,0,1,0.3,1.2,0.9c0.7,1.8,1.4,3.6,2.1,5.4c0.1,0.3,0.5,0.8,0.8,0.8c3.2,0.1,6.3,0,9.5,0c-0.1-0.2-0.1-0.4-0.1-0.5
		c-4.9-11.4-9.8-22.7-14.6-34.1c-0.3-0.7-0.7-0.8-1.3-0.8c-3.1,0-6.1,0.1-9.2,0c-1,0-1.5,0.2-1.9,1.2c-3.4,8.1-7,16.2-10.4,24.3
		C2802.6,186,2801.2,189.2,2799.8,192.6z M2799.5,184.8c-1.3,0-2.5,0-3.6,0c-4.1-0.2-7.1-2.6-7.9-6.4c-0.3-1.5-0.4-3-0.3-4.5
		c0.4-4.6,3.2-8.5,9-8.3c2.3,0.1,4.7,0,7,0c0.7,0,1.5,0,2.2,0c0-2.9,0-5.7,0-8.2c-4.4,0-8.7-0.2-12.9,0.1
		c-6.6,0.5-11.6,4.7-13.4,11.1c-1.1,3.7-1.1,7.5-0.4,11.3c1.5,8.2,7.6,13.1,15.9,12.8c0.3,0,0.8-0.2,0.9-0.4
		C2797.1,189.8,2798.2,187.4,2799.5,184.8z M2765.4,157.3c0,11.8,0,23.6,0,35.3c3,0,5.9,0,8.9,0c0-11.8,0-23.5,0-35.3
		C2771.2,157.3,2768.4,157.3,2765.4,157.3z"/>
	<path class="st14" d="M2602.4,192.4c0.2-0.4,0.5-0.8,0.7-1.3c4.7-10.9,9.4-21.8,14-32.7c0.4-0.9,0.8-1.2,1.7-1.2
		c3.1,0.1,6.2,0,9.3,0c0.7,0,1.1,0.2,1.4,0.9c4.8,11.3,9.7,22.5,14.5,33.8c0.1,0.2,0.1,0.5,0.2,0.8c-3.2,0-6.3,0-9.4,0
		c-0.3,0-0.8-0.4-0.9-0.7c-0.8-1.8-1.5-3.6-2.1-5.4c-0.2-0.7-0.5-1-1.3-1c-4.8,0-9.6,0-14.4,0c-0.7,0-1,0.2-1.3,0.9
		c-0.7,1.8-1.4,3.6-2.1,5.4c-0.2,0.7-0.6,0.9-1.3,0.9c-3,0-6,0-9,0C2602.4,192.5,2602.4,192.5,2602.4,192.4z M2623.3,165.5
		c-1.7,4.3-3.3,8.2-4.9,12.3c3.4,0,6.5,0,9.9,0C2626.6,173.7,2625,169.8,2623.3,165.5z"/>
	<path class="st14" d="M2904,241.6c0,1,0,2,0,3c0,0.3,0,0.7,0,1c0,0.2,0,0.3,0,0.5c-0.3,0.6-0.5,1.3-0.8,1.9
		c-2,4.5-5.7,6.4-10.4,6.4c-6.1,0-12.2,0-18.3,0c-0.2,0-0.5,0-0.7-0.1c0-2.6,0-5,0-7.6c0.6,0,1,0,1.5,0c5.2,0,10.4,0,15.6,0
		c0.9,0,1.8-0.2,2.6-0.4c1.1-0.4,1.7-1.2,1.7-2.4c0.1-1.2-0.5-2.2-1.6-2.6c-0.8-0.3-1.6-0.5-2.4-0.5c-2.8-0.1-5.7,0-8.5-0.1
		c-5-0.1-8.7-3.1-9.7-7.6c-1.2-5.6,0.8-10.4,5.4-12.5c2.1-0.9,4.4-1.5,6.6-1.5c5.6-0.2,11.2-0.1,16.8-0.1c0.5,0,1-0.1,1.5-0.1
		c0,0.4,0,0.7,0,1.1c-0.9,1.9-1.9,3.9-2.8,5.9c-0.3,0.8-0.8,1.1-1.7,1.1c-4.3-0.1-8.7,0-13,0c-0.7,0-1.5,0.1-2.2,0.2
		c-1.4,0.3-2.2,1.3-2.2,2.8c0,1.7,1.3,3,3.2,3c2.9,0,5.8,0,8.7,0c4.3,0.1,7.9,1.4,10.1,5.5c0.3,0.5,0.5,1,0.8,1.5c0,0.3,0,0.7,0,1
		C2904,241.3,2904,241.5,2904,241.6z"/>
	<path class="st15" d="M2903.2,213.3c0,1.9,0,3.8,0,5.7c-0.5,0-1,0.1-1.5,0.1c-5.6,0-11.2-0.1-16.8,0.1c-2.2,0.1-4.6,0.6-6.6,1.5
		c-4.7,2.1-6.6,6.9-5.4,12.5c1,4.5,4.7,7.4,9.7,7.6c2.8,0.1,5.7,0,8.5,0.1c0.8,0,1.7,0.2,2.4,0.5c1.1,0.5,1.6,1.4,1.6,2.6
		c-0.1,1.2-0.6,2-1.7,2.4c-0.8,0.3-1.7,0.4-2.6,0.4c-5.2,0-10.4,0-15.6,0c-0.5,0-0.9,0-1.5,0c0,2.5,0,5,0,7.6c0.3,0,0.5,0.1,0.7,0.1
		c6.1,0,12.2,0,18.3,0c4.8,0,8.4-2,10.4-6.4c0,3.1,0,6.2,0,9.4c-4.1,2.5-8.6,3.2-13.3,3.2c-31.9-0.1-63.8-0.1-95.7,0
		c-1.2,0-2-0.4-2.7-1.3c-1.5-2-3.1-3.9-4.9-6.1c0,2.7,0,5,0,7.4c-6.7,0-13.2,0-19.8,0c0-4.2,0-8.3,0-12.6c-5,2.4-10.2,1.6-15.3,1.8
		c0,3.6,0,7.2,0,10.8c-0.5,0-0.9,0.1-1.3,0.1c-9.2,0-18.3,0-27.5,0c-0.8,0-1.4-0.2-1.9-0.9c-1.5-2.1-3-4.1-4.7-6.2
		c-1.7,2.2-3.2,4.3-4.8,6.3c-0.4,0.4-1.1,0.8-1.6,0.8c-15.8,0-31.7,0-47.5,0c-0.4,0-0.7,0-1.2-0.1c0-15.7,0-31.4,0-47.1
		c0.5,0,0.9-0.1,1.3-0.1c15.8,0,31.7,0,47.5,0c0.9,0,1.5,0.3,2,1c1.5,2,3,3.9,4.6,6c1.3-1.6,2.6-3,3.6-4.6c1.2-1.9,2.7-2.4,5-2.4
		c58.8,0.1,117.7,0.1,176.5,0.1C2901.9,213.3,2902.6,213.3,2903.2,213.3z M2781.3,241.9c0.8,0,1.4,0.1,2.1,0
		c1.2-0.2,1.9,0.3,2.6,1.2c2.4,3,5.1,5.8,7.4,8.9c1.5,2,3,2.7,5.5,2.5c2.4-0.2,4.8,0,7.5,0c-4-4.5-7.7-8.7-11.5-13
		c4.9-0.9,8-3.5,9.3-8.2c1.2-4.6-0.5-9.2-4.1-11.8c-2.5-1.8-5.4-2.4-8.4-2.4c-6,0-12,0-18,0c-0.4,0-0.7,0-1.1,0.1
		c0,11.8,0,23.5,0,35.2c2.9,0,5.8,0,8.8,0C2781.3,250.2,2781.3,246.2,2781.3,241.9z M2695.1,233.1c-6.5,0-12.9,0-19.3,0
		c0-2.1,0-4,0-6.1c6.6,0,13.1,0,19.7,0c0-2.6,0-5.2,0-7.7c-9.6,0-19.1,0-28.7,0c0,11.8,0,23.4,0,35.1c9.6,0,19.2,0,28.7,0
		c0-2.6,0-5,0-7.6c-6.6,0-13.2,0-19.7,0c0-2.1,0-4.1,0-6.2c6.4,0,12.8,0,19.3,0C2695.1,238.1,2695.1,235.6,2695.1,233.1z
		 M2837,246.9c-6.6,0-13.2,0-19.8,0c0-2.2,0-4.2,0-6.3c6.4,0,12.8,0,19.2,0c0-2.5,0-4.9,0-7.5c-6.4,0-12.8,0-19.2,0c0-2.1,0-4,0-6
		c6.7,0,13.2,0,19.8,0c0-2.7,0-5.2,0-7.8c-9.6,0-19.1,0-28.7,0c0,11.8,0,23.5,0,35.2c9.6,0,19.1,0,28.7,0
		C2837,251.9,2837,249.5,2837,246.9z M2841.2,254.4c0.3,0,0.4,0.1,0.6,0.1c6.2,0,12.5,0.1,18.7,0c6.4-0.1,10.1-3.6,11-9.8
		c0.7-4.9-1.7-9.3-6-10.7c-1.8-0.6-3.8-0.7-5.7-0.8c-2.6-0.1-5.3,0-7.9-0.1c-1.7,0-3-1.2-3.1-2.9c-0.1-1.5,0.8-2.7,2.6-3
		c0.6-0.1,1.2-0.1,1.9-0.1c3.6,0,7.1-0.2,10.7,0.1c2.6,0.2,4.2-0.5,4.9-3.1c0.5-1.6,1.4-3.1,2.2-4.9c-5.6,0-11,0-16.4,0
		c-1.2,0-2.4,0-3.6,0.1c-7.5,0.8-11.4,5.3-10.9,12.4c0.3,4.8,3.5,8.3,8.2,8.9c3.3,0.4,6.7,0.2,10,0.3c0.8,0,1.7,0.1,2.4,0.4
		c1.2,0.4,1.8,1.4,1.7,2.6c0,1.2-0.6,2.1-1.8,2.5c-0.8,0.3-1.6,0.4-2.5,0.4c-4,0-8,0-12.1,0c-1.7,0-3.3,0-5.1,0
		C2841.2,249.4,2841.2,251.9,2841.2,254.4z M2736.4,219.2c0,11.8,0,23.5,0,35.2c3,0,6,0,9,0c0-3.7,0-7.3,0-11c0.6,0,1.1,0,1.6,0
		c3.5-0.1,7.1,0.1,10.6-0.3c3.8-0.4,7-2.2,9.1-5.5c1.9-3,2.1-6.4,1.3-9.8c-0.6-2.8-2.2-5-4.7-6.5c-2.4-1.5-5-2-7.7-2.1
		c-6,0-12.1,0-18.1,0C2737.2,219.2,2736.9,219.2,2736.4,219.2z M2735.5,219.2c-3.6,0-6.9,0-10.2,0c-0.4,0-0.8,0.4-1.1,0.7
		c-2.3,3-4.6,5.9-6.9,8.9c-0.3,0.4-0.7,0.9-1.1,1.4c-2.6-3.4-5.2-6.6-7.6-9.9c-0.7-0.9-1.3-1.2-2.4-1.2c-2,0.1-3.9,0-5.9,0
		c-1.2,0-2.3,0-3.7,0c4.9,6.1,9.6,12,14.4,17.9c-4.6,5.8-9.3,11.5-14,17.5c3.3,0,6.3-0.1,9.2,0c1.3,0.1,2.1-0.4,2.9-1.5
		c2.2-3.2,4.6-6.2,7-9.4c2.6,3.4,5.1,6.8,7.7,10.1c0.3,0.4,1,0.8,1.5,0.8c3,0.1,6,0,9,0c0.3,0,0.6-0.1,1-0.1
		c-4.7-5.9-9.3-11.7-13.9-17.5C2726,231,2730.6,225.2,2735.5,219.2z"/>
	<path class="st14" d="M2645.5,157.2c3,0,5.9,0,8.8,0c1.3,0,2.7,0.1,4,0c0.9-0.1,1.3,0.3,1.6,1.1c2.3,6.6,4.7,13.1,7,19.7
		c0.2,0.5,0.4,1.1,0.7,1.9c0.2-0.6,0.4-1,0.6-1.4c2.4-6.7,4.7-13.5,7.1-20.2c0.3-0.8,0.6-1.1,1.5-1.1c4.2,0.1,8.4,0,12.8,0
		c0,11.8,0,23.6,0,35.4c-2.9,0-5.7,0-8.7,0c0-8.4,0-16.9,0-25.3c-0.1,0-0.2,0-0.2-0.1c-0.1,0.3-0.3,0.6-0.4,0.9
		c-2.8,7.8-5.7,15.6-8.4,23.5c-0.3,0.8-0.6,1.1-1.5,1.1c-1.8-0.1-3.6-0.1-5.4,0c-1,0-1.4-0.3-1.7-1.2c-2.7-7.7-5.5-15.4-8.3-23.1
		c-0.1-0.4-0.3-0.7-0.6-1.1c0,8.4,0,16.8,0,25.3c-3,0-5.8,0-8.8,0C2645.5,180.8,2645.5,169.1,2645.5,157.2z"/>
	<path class="st14" d="M2851.7,192.6c-3.1,0-5.9,0-8.9,0c0-11.8,0-23.5,0-35.4c2.7,0,5.4,0.2,8-0.1c2.3-0.2,3.6,0.6,4.9,2.6
		c3.8,6.1,7.7,12.1,11.7,18.2c0.2,0.4,0.5,0.7,0.9,1.4c0-7.5,0-14.7,0-22c3,0,5.8,0,8.8,0c0,11.7,0,23.5,0,35.3c-3.4,0-6.9,0-10.3,0
		c-0.4,0-0.8-0.5-1-0.9c-4.4-6.8-8.8-13.6-13.2-20.3c-0.2-0.3-0.5-0.7-0.9-1.3C2851.7,177.7,2851.7,185.1,2851.7,192.6z"/>
	<path class="st14" d="M2752.1,179.7c3.8,4.3,7.6,8.5,11.4,12.8c-0.4,0-0.7,0.1-1,0.1c-2.9,0-5.8,0-8.7,0c-0.6,0-1.3-0.3-1.7-0.8
		c-3-3.5-6-7-8.9-10.6c-0.8-1-1.6-1.3-2.8-1.2c-0.6,0.1-1.2,0-2,0c0,4.2,0,8.3,0,12.5c-3,0-5.9,0-8.9,0c0-11.7,0-23.4,0-35.2
		c0.4,0,0.7-0.1,1-0.1c6.2,0,12.4,0,18.6,0c3.7,0,7.1,1.1,9.7,4c5.1,5.7,3.1,16.1-5.8,18.2C2752.9,179.5,2752.6,179.5,2752.1,179.7z
		 M2738.6,172.6c3.4,0,6.8,0,10.2,0c2.3,0,4-1.7,4-3.7c0-2-1.8-3.6-4-3.7c-2.3,0-4.7,0-7,0c-1,0-2.1,0-3.1,0
		C2738.6,167.7,2738.6,170.1,2738.6,172.6z"/>
	<path class="st14" d="M2724,171.2c0,2.6,0,4.9,0,7.4c-6.4,0-12.8,0-19.3,0c0,2.1,0,4.1,0,6.3c6.5,0,13.1,0,19.7,0
		c0,2.6,0,5.1,0,7.7c-9.5,0-19.1,0-28.7,0c0-11.7,0-23.4,0-35.2c9.6,0,19.1,0,28.7,0c0,2.5,0,5.1,0,7.8c-6.5,0-13.1,0-19.7,0
		c0,2.1,0,4,0,6.1C2711.1,171.2,2717.5,171.2,2724,171.2z"/>
	<path class="st14" d="M2799.8,192.6c1.5-3.4,2.8-6.7,4.2-9.9c3.5-8.1,7-16.2,10.4-24.3c0.4-1,0.9-1.3,1.9-1.2c3.1,0.1,6.1,0,9.2,0
		c0.7,0,1,0.2,1.3,0.8c4.9,11.4,9.7,22.7,14.6,34.1c0,0.1,0.1,0.2,0.1,0.5c-3.2,0-6.4,0-9.5,0c-0.3,0-0.6-0.5-0.8-0.8
		c-0.7-1.8-1.5-3.6-2.1-5.4c-0.2-0.6-0.5-0.9-1.2-0.9c-4.9,0-9.7,0-14.6,0.1c-0.4,0-1,0.4-1.1,0.8c-0.8,1.8-1.5,3.6-2.2,5.4
		c-0.1,0.3-0.6,0.7-0.9,0.8C2806,192.6,2803,192.6,2799.8,192.6z M2825.5,177.8c-1.7-4.1-3.2-8.1-4.9-12.3
		c-1.7,4.3-3.3,8.2-4.9,12.3C2819,177.8,2822.2,177.8,2825.5,177.8z"/>
	<path class="st14" d="M2799.5,184.8c-1.2,2.6-2.4,5-3.6,7.4c-0.1,0.2-0.6,0.4-0.9,0.4c-8.3,0.4-14.4-4.5-15.9-12.8
		c-0.7-3.8-0.7-7.6,0.4-11.3c1.9-6.4,6.8-10.6,13.4-11.1c4.2-0.3,8.5-0.1,12.9-0.1c0,2.6,0,5.3,0,8.2c-0.7,0-1.4,0-2.2,0
		c-2.3,0-4.7,0.1-7,0c-5.7-0.2-8.6,3.7-9,8.3c-0.1,1.5,0,3,0.3,4.5c0.8,3.9,3.8,6.2,7.9,6.4C2797,184.9,2798.1,184.8,2799.5,184.8z"
		/>
	<path class="st14" d="M2765.4,157.3c3,0,5.9,0,8.9,0c0,11.8,0,23.5,0,35.3c-2.9,0-5.9,0-8.9,0
		C2765.4,180.8,2765.4,169.1,2765.4,157.3z"/>
	<path class="st15" d="M2623.3,165.5c1.7,4.3,3.3,8.2,4.9,12.3c-3.3,0-6.5,0-9.9,0C2620,173.7,2621.6,169.8,2623.3,165.5z"/>
	<path class="st15" d="M2903.2,220.2c0,6.2,0,12.3,0,18.5c-2.1-4.1-5.7-5.5-10.1-5.5c-2.9,0-5.8,0-8.7,0c-1.9,0-3.2-1.2-3.2-3
		c0-1.5,0.7-2.5,2.2-2.8c0.7-0.2,1.5-0.2,2.2-0.2c4.3,0,8.7,0,13,0c0.9,0,1.3-0.3,1.7-1.1C2901.3,224,2902.2,222.1,2903.2,220.2z"/>
	<path class="st14" d="M2781.3,241.9c0,4.2,0,8.3,0,12.5c-3,0-5.8,0-8.8,0c0-11.7,0-23.4,0-35.2c0.4,0,0.7-0.1,1.1-0.1
		c6,0,12,0,18,0c3,0,5.9,0.6,8.4,2.4c3.6,2.6,5.3,7.3,4.1,11.8c-1.2,4.6-4.4,7.2-9.3,8.2c3.8,4.3,7.6,8.5,11.5,13
		c-2.7,0-5.1-0.2-7.5,0c-2.4,0.2-4-0.6-5.5-2.5c-2.3-3.1-5-5.9-7.4-8.9c-0.7-0.9-1.5-1.4-2.6-1.2
		C2782.8,242,2782.1,241.9,2781.3,241.9z M2781.4,234.5c3.6,0,7,0.1,10.4,0c2.3-0.1,3.9-1.9,3.8-3.7c-0.1-2-1.9-3.6-4.2-3.7
		c-2.6,0-5.3,0-7.9,0c-0.7,0-1.4,0-2.1,0C2781.4,229.6,2781.4,232,2781.4,234.5z"/>
	<path class="st14" d="M2695.1,233.1c0,2.6,0,5,0,7.5c-6.5,0-12.8,0-19.3,0c0,2.1,0,4.1,0,6.2c6.6,0,13.1,0,19.7,0c0,2.6,0,5,0,7.6
		c-9.5,0-19.1,0-28.7,0c0-11.7,0-23.4,0-35.1c9.6,0,19.1,0,28.7,0c0,2.5,0,5.1,0,7.7c-6.6,0-13.1,0-19.7,0c0,2,0,4,0,6.1
		C2682.2,233.1,2688.7,233.1,2695.1,233.1z"/>
	<path class="st14" d="M2837,246.9c0,2.6,0,5,0,7.6c-9.6,0-19.1,0-28.7,0c0-11.7,0-23.4,0-35.2c9.6,0,19.1,0,28.7,0
		c0,2.6,0,5.1,0,7.8c-6.6,0-13.2,0-19.8,0c0,2.1,0,4,0,6c6.4,0,12.8,0,19.2,0c0,2.6,0,5,0,7.5c-6.4,0-12.8,0-19.2,0
		c0,2.1,0,4.2,0,6.3C2823.9,246.9,2830.4,246.9,2837,246.9z"/>
	<path class="st14" d="M2841.2,254.4c0-2.6,0-5,0-7.6c1.7,0,3.4,0,5.1,0c4,0,8,0,12.1,0c0.8,0,1.7-0.1,2.5-0.4
		c1.1-0.4,1.7-1.2,1.8-2.5c0-1.3-0.6-2.2-1.7-2.6c-0.8-0.3-1.6-0.4-2.4-0.4c-3.3-0.1-6.7,0.1-10-0.3c-4.8-0.5-7.9-4.1-8.2-8.9
		c-0.5-7.1,3.4-11.6,10.9-12.4c1.2-0.1,2.4-0.1,3.6-0.1c5.4,0,10.8,0,16.4,0c-0.8,1.7-1.7,3.2-2.2,4.9c-0.8,2.6-2.3,3.3-4.9,3.1
		c-3.5-0.3-7.1-0.1-10.7-0.1c-0.6,0-1.3,0-1.9,0.1c-1.8,0.3-2.7,1.4-2.6,3c0.1,1.6,1.4,2.8,3.1,2.9c2.6,0,5.3-0.1,7.9,0.1
		c1.9,0.1,3.9,0.2,5.7,0.8c4.3,1.4,6.7,5.8,6,10.7c-0.8,6.3-4.6,9.7-11,9.8c-6.2,0.1-12.5,0-18.7,0
		C2841.6,254.5,2841.5,254.5,2841.2,254.4z"/>
	<path class="st14" d="M2736.4,219.2c0.4,0,0.8-0.1,1.2-0.1c6,0,12.1,0,18.1,0c2.7,0,5.4,0.6,7.7,2.1c2.5,1.6,4,3.7,4.7,6.5
		c0.8,3.4,0.6,6.8-1.3,9.8c-2.1,3.3-5.3,5.1-9.1,5.5c-3.5,0.3-7.1,0.2-10.6,0.3c-0.5,0-1,0-1.6,0c0,3.7,0,7.3,0,11c-3.1,0-6,0-9,0
		C2736.4,242.7,2736.4,231,2736.4,219.2z M2745.5,235.3c3.5,0,6.9,0,10.3,0c0.3,0,0.6-0.1,0.9-0.2c2.3-0.9,3-2.1,2.8-4.6
		c-0.1-1.5-1.5-3.1-3-3.1c-3.6-0.1-7.2,0-10.9,0C2745.5,229.9,2745.5,232.5,2745.5,235.3z"/>
	<path class="st14" d="M2735.5,219.2c-4.8,6-9.5,11.8-14.2,17.7c4.6,5.8,9.2,11.6,13.9,17.5c-0.5,0.1-0.8,0.1-1,0.1c-3,0-6,0-9,0
		c-0.5,0-1.2-0.4-1.5-0.8c-2.6-3.3-5.1-6.6-7.7-10.1c-2.4,3.2-4.7,6.3-7,9.4c-0.8,1.1-1.5,1.5-2.9,1.5c-3-0.1-5.9,0-9.2,0
		c4.8-5.9,9.4-11.7,14-17.5c-4.8-5.9-9.5-11.8-14.4-17.9c1.4,0,2.6,0,3.7,0c2,0,3.9,0.1,5.9,0c1.1,0,1.8,0.3,2.4,1.2
		c2.5,3.3,5,6.5,7.6,9.9c0.4-0.5,0.8-0.9,1.1-1.4c2.3-3,4.6-6,6.9-8.9c0.3-0.3,0.7-0.7,1.1-0.7
		C2728.6,219.1,2731.9,219.2,2735.5,219.2z"/>
	<path class="st15" d="M2738.6,172.6c0-2.5,0-4.8,0-7.4c1.1,0,2.1,0,3.1,0c2.3,0,4.7,0,7,0c2.2,0,4,1.7,4,3.7c0,2-1.7,3.6-4,3.7
		C2745.4,172.6,2742,172.6,2738.6,172.6z"/>
	<path class="st15" d="M2825.5,177.8c-3.4,0-6.5,0-9.9,0c1.6-4.1,3.2-8,4.9-12.3C2822.3,169.7,2823.9,173.7,2825.5,177.8z"/>
	<path class="st15" d="M2781.4,234.5c0-2.5,0-4.9,0-7.4c0.7,0,1.4,0,2.1,0c2.6,0,5.3,0,7.9,0c2.3,0,4.2,1.7,4.2,3.7
		c0.1,1.9-1.6,3.6-3.8,3.7C2788.4,234.6,2784.9,234.5,2781.4,234.5z"/>
	<path class="st15" d="M2745.5,235.3c0-2.8,0-5.4,0-8c3.7,0,7.3-0.1,10.9,0c1.6,0,2.9,1.7,3,3.1c0.2,2.6-0.6,3.7-2.8,4.6
		c-0.3,0.1-0.6,0.2-0.9,0.2C2752.4,235.3,2749,235.3,2745.5,235.3z"/>
</g>
<g>
</g>
<g>
</g>
<g>
</g>
<g>
</g>
<g>
</g>
<g>
</g>
</svg>
